<svg id="icons" xmlns="http://www.w3.org/2000/svg" viewBox="0 0 512 512"><path d="M240.268 0.923 C 160.885 8.459,97.065 67.287,82.561 146.293 C 80.964 154.997,80.672 159.617,80.673 176.213 C 80.674 193.074,80.949 197.283,82.620 206.080 C 87.093 229.631,92.923 247.223,102.479 266.008 C 113.124 286.933,124.627 302.893,141.615 320.306 C 168.540 347.904,200.159 367.363,233.924 377.115 C 243.605 379.911,246.613 382.142,246.613 386.528 C 246.613 387.866,245.433 395.237,243.990 402.907 C 241.090 418.326,241.166 421.775,244.518 426.863 C 248.787 433.343,254.471 434.553,269.653 432.213 C 274.112 431.526,278.044 430.957,278.390 430.949 C 278.737 430.940,280.598 434.101,282.524 437.973 C 293.101 459.225,313.462 482.387,332.826 495.194 C 342.645 501.687,359.865 510.454,364.896 511.521 C 375.278 513.722,385.910 502.635,383.171 492.463 C 381.399 485.885,379.222 483.934,366.476 477.507 C 351.052 469.729,344.756 465.214,333.160 453.615 C 323.605 444.059,314.027 431.085,314.027 427.700 C 314.027 426.191,314.736 425.850,318.933 425.338 C 328.676 424.151,334.304 420.104,336.247 412.889 C 337.644 407.700,336.874 405.139,329.351 389.955 C 324.934 381.039,322.560 375.245,322.560 373.381 C 322.560 369.988,323.880 368.784,337.067 360.155 C 382.040 330.723,416.807 277.663,427.897 221.536 C 433.214 194.620,433.061 163.174,427.491 138.082 C 413.256 73.966,363.514 22.364,300.211 6.041 C 281.539 1.227,258.124 -0.772,240.268 0.923 M159.840 207.665 C 164.249 209.507,167.203 213.361,170.697 221.831 C 183.321 252.435,208.677 278.449,238.933 291.841 C 248.284 295.979,251.722 300.348,251.729 308.100 C 251.737 317.253,245.091 323.854,235.933 323.788 C 227.016 323.724,200.973 308.858,184.547 294.455 C 165.803 278.022,148.659 253.777,140.270 231.840 C 137.649 224.987,137.325 219.277,139.338 215.406 C 143.122 208.130,152.489 204.593,159.840 207.665 " stroke="none" fill="black" fill-rule="evenodd"></path></svg>