<svg id="icons" xmlns="http://www.w3.org/2000/svg" viewBox="0 0 512 512"><path d="M240.268 0.923 C 163.564 8.205,100.768 63.495,84.162 138.369 C 72.018 193.127,87.740 254.351,126.640 303.787 C 129.410 307.307,137.473 315.969,144.558 323.037 C 166.303 344.729,190.157 360.740,216.390 371.251 C 223.566 374.127,239.756 379.099,245.163 380.087 C 247.681 380.548,248.308 381.003,247.968 382.127 C 246.322 387.567,241.416 418.179,241.805 420.580 C 242.496 424.836,246.126 429.797,249.994 431.770 C 254.451 434.044,261.190 433.935,276.199 431.348 C 278.886 430.885,278.939 430.946,283.700 440.081 C 295.402 462.534,313.977 482.924,335.527 496.971 C 344.404 502.756,360.850 510.834,365.275 511.582 C 376.038 513.400,385.888 502.639,383.090 492.120 C 381.417 485.831,379.135 483.847,365.984 477.248 C 351.380 469.919,341.871 462.975,331.312 451.931 C 324.052 444.337,313.173 429.401,313.173 427.027 C 313.173 426.378,315.197 425.749,318.507 425.369 C 321.440 425.033,325.275 424.188,327.029 423.491 C 333.339 420.983,337.886 412.957,336.670 406.475 C 336.376 404.905,332.505 396.312,328.067 387.379 C 323.630 378.446,320.000 370.965,320.000 370.756 C 320.000 370.547,321.933 369.396,324.296 368.198 C 331.357 364.621,347.057 353.642,355.500 346.379 C 391.988 314.990,418.539 269.097,427.856 221.317 C 431.045 204.958,432.066 192.015,431.548 174.517 C 431.111 159.805,428.431 136.575,426.799 133.365 C 426.372 132.526,424.421 126.896,422.462 120.853 C 404.282 64.778,357.456 20.801,300.211 6.041 C 281.539 1.227,258.124 -0.772,240.268 0.923 M283.643 34.974 C 297.038 37.837,307.633 41.511,319.573 47.432 C 354.928 64.964,381.186 95.666,392.857 133.120 C 400.898 158.922,402.077 187.225,396.305 215.893 C 385.302 270.554,347.869 321.637,303.375 342.715 C 281.261 353.190,258.394 353.134,230.945 342.538 C 187.009 325.578,148.558 289.405,128.234 245.912 C 123.316 235.388,117.534 217.933,115.253 206.721 C 106.015 161.320,117.266 117.169,147.020 82.068 C 167.021 58.472,197.638 40.775,228.330 35.069 C 242.147 32.501,241.517 32.546,258.987 32.869 C 271.370 33.098,277.194 33.595,283.643 34.974 M146.947 208.323 C 140.310 211.608,136.992 218.364,138.357 225.813 C 138.712 227.749,140.694 233.179,142.763 237.879 C 158.002 272.505,186.239 301.782,220.340 318.312 C 233.547 324.714,236.528 325.226,242.780 322.168 C 251.416 317.942,254.429 308.110,249.608 299.883 C 247.728 296.676,246.185 295.602,236.263 290.600 C 204.277 274.477,183.152 252.032,169.896 220.085 C 166.963 213.016,164.264 209.869,159.387 207.832 C 155.054 206.022,151.296 206.170,146.947 208.323 M292.747 388.374 C 294.665 392.188,295.917 395.583,295.530 395.919 C 294.734 396.612,278.305 398.910,277.796 398.400 C 277.614 398.219,278.112 394.616,278.901 390.395 L 280.336 382.720 283.315 382.192 C 289.182 381.153,289.085 381.089,292.747 388.374 " stroke="none" fill="black" fill-rule="evenodd"></path></svg>