<svg id="icons" xmlns="http://www.w3.org/2000/svg" viewBox="0 0 512 512"><path d="M229.973 33.420 C 181.245 38.921,133.069 62.379,97.555 97.898 C 71.320 124.136,51.231 157.965,41.018 193.099 C 37.824 204.089,34.493 220.688,33.327 231.433 C 32.168 242.102,32.168 269.898,33.327 280.567 C 37.063 314.976,49.811 350.123,69.002 378.924 C 78.836 393.682,85.770 402.225,97.384 413.895 C 131.050 447.722,174.939 470.027,222.720 477.593 C 236.691 479.805,275.239 479.817,289.140 477.613 C 387.119 462.080,462.080 387.119,477.613 289.140 C 479.805 275.314,479.805 236.686,477.613 222.860 C 462.665 128.572,392.295 54.878,299.520 36.356 C 293.653 35.185,285.124 33.821,280.567 33.327 C 270.782 32.264,239.708 32.322,229.973 33.420 M274.412 64.907 C 340.766 71.364,398.969 111.809,428.446 171.947 C 474.991 266.905,435.360 381.897,340.053 428.422 C 244.764 474.938,130.349 435.520,83.554 340.053 C 37.052 245.182,76.641 130.143,171.809 83.608 C 203.633 68.046,239.497 61.509,274.412 64.907 M287.208 105.828 C 282.339 107.730,277.129 112.445,274.498 117.333 C 272.014 121.947,271.865 133.759,274.234 138.240 C 280.086 149.311,292.646 154.423,304.267 150.463 C 310.277 148.415,316.878 141.618,318.649 135.651 C 321.489 126.090,319.588 118.090,312.882 111.384 C 305.790 104.292,296.365 102.253,287.208 105.828 M350.293 146.172 C 344.995 148.717,339.524 154.564,337.511 159.834 C 335.338 165.525,336.037 174.306,339.075 179.491 C 348.868 196.200,372.504 195.851,381.167 178.869 C 387.040 167.357,382.881 153.751,371.441 147.046 C 365.739 143.704,356.249 143.312,350.293 146.172 M281.548 176.905 C 264.070 181.828,258.272 205.247,271.558 217.251 C 276.667 221.866,281.035 223.536,288.000 223.536 C 301.595 223.536,311.746 213.520,311.746 200.107 C 311.746 190.899,305.532 181.268,297.398 177.870 C 293.146 176.093,285.978 175.656,281.548 176.905 " stroke="none" fill="black" fill-rule="evenodd"></path></svg>