<svg id="icons" xmlns="http://www.w3.org/2000/svg" viewBox="0 0 512 512"><path d="M120.175 34.156 C 113.914 37.464,111.787 42.791,111.787 55.167 L 111.787 64.000 101.084 64.000 C 80.073 64.000,65.860 69.059,52.430 81.320 C 43.241 89.708,36.122 102.375,33.149 115.627 C 32.210 119.813,32.000 148.300,32.000 271.787 C 32.000 442.533,31.463 429.077,38.882 444.160 C 47.168 461.004,61.704 472.813,80.640 478.083 L 87.467 479.983 249.173 480.250 C 358.329 480.431,413.958 480.224,420.351 479.615 C 434.819 478.236,445.528 474.134,455.452 466.170 C 466.568 457.248,474.376 445.099,478.095 430.933 L 480.000 423.680 480.000 272.213 C 480.000 107.679,480.266 116.973,475.190 104.170 C 467.217 84.058,449.322 69.343,427.838 65.232 C 424.295 64.555,416.630 64.000,410.805 64.000 L 400.213 64.000 400.213 55.167 C 400.213 46.005,399.403 42.195,396.598 38.167 C 391.333 30.609,376.667 30.609,371.402 38.167 C 368.597 42.195,367.787 46.005,367.787 55.167 L 367.787 64.000 256.000 64.000 L 144.213 64.000 144.213 55.167 C 144.213 42.664,142.067 37.392,135.642 34.114 C 131.332 31.915,124.382 31.934,120.175 34.156 M429.835 99.198 C 442.935 106.104,448.000 115.844,448.000 134.128 L 448.000 144.213 255.905 144.213 L 63.810 144.213 64.181 132.053 C 64.510 121.260,64.797 119.366,66.731 115.200 C 70.617 106.832,77.298 100.752,86.054 97.612 C 88.593 96.701,120.422 96.526,257.280 96.673 L 425.387 96.853 429.835 99.198 M447.801 299.733 L 447.573 423.680 444.906 429.227 C 441.505 436.302,436.249 441.563,429.227 444.921 L 423.680 447.573 256.000 447.573 L 88.320 447.573 83.111 445.166 C 76.521 442.120,69.949 435.520,66.815 428.800 L 64.427 423.680 64.199 299.733 L 63.972 175.787 256.000 175.787 L 448.028 175.787 447.801 299.733 M177.067 209.530 C 158.109 213.597,138.272 230.490,138.248 242.587 C 138.229 252.098,144.613 258.560,154.027 258.560 C 159.689 258.560,161.666 257.435,168.796 250.159 C 175.795 243.017,179.114 241.307,188.220 240.155 C 194.489 239.362,204.376 241.113,210.524 244.106 C 220.038 248.738,224.270 256.051,223.344 266.261 C 222.125 279.712,210.207 288.679,190.986 290.609 C 179.205 291.792,172.534 303.354,177.597 313.814 C 180.208 319.209,184.460 321.719,192.515 322.623 C 203.072 323.807,210.970 326.859,219.015 332.865 C 225.309 337.563,228.067 343.490,228.537 353.330 C 229.144 366.027,225.280 373.353,215.122 378.768 C 202.663 385.408,187.028 385.582,176.119 379.202 C 172.655 377.176,165.563 370.093,161.133 364.233 C 156.830 358.542,148.350 356.689,141.833 360.016 C 137.922 362.012,136.126 363.950,134.433 368.004 C 131.224 375.683,133.991 382.859,144.398 393.854 C 154.643 404.677,164.642 410.719,177.828 414.053 C 187.705 416.551,205.380 415.902,216.288 412.642 C 238.632 405.963,253.596 391.479,259.166 371.138 C 261.207 363.686,261.138 347.406,259.031 339.292 C 255.984 327.560,250.992 318.951,242.541 310.855 L 237.003 305.551 241.373 300.769 C 250.684 290.582,255.266 278.722,255.374 264.533 C 255.496 248.548,250.879 237.170,239.793 226.133 C 232.320 218.694,225.094 214.536,213.760 211.156 C 204.042 208.258,186.598 207.485,177.067 209.530 M344.320 212.369 C 342.912 212.737,340.892 213.503,339.831 214.073 C 334.907 216.719,292.498 248.758,290.842 251.084 C 288.868 253.855,287.790 261.026,288.763 264.905 C 289.452 267.648,293.934 272.782,297.044 274.390 C 300.149 275.996,307.807 275.967,310.929 274.339 C 312.276 273.636,318.299 269.415,324.314 264.957 C 330.328 260.500,335.466 256.853,335.731 256.853 C 335.996 256.853,336.213 289.049,336.213 328.399 L 336.213 399.945 338.196 403.694 C 340.468 407.990,347.266 412.160,352.000 412.160 C 356.734 412.160,363.532 407.990,365.804 403.694 L 367.787 399.945 367.787 312.241 C 367.787 252.350,367.499 223.776,366.879 222.136 C 365.764 219.185,362.174 215.299,359.061 213.673 C 356.236 212.197,347.831 211.454,344.320 212.369 " stroke="none" fill="black" fill-rule="evenodd"></path></svg>