<svg xmlns="http://www.w3.org/2000/svg" viewBox="0 0 512 512"><path d="M127.423 81.611 C 114.762 86.097,108.497 102.085,114.561 114.434 C 116.728 118.847,121.725 123.388,179.459 173.424 C 213.861 203.239,243.717 228.535,245.804 229.637 C 251.193 232.481,260.807 232.481,266.196 229.637 C 268.283 228.535,298.139 203.239,332.541 173.424 C 390.275 123.388,395.272 118.847,397.439 114.434 C 402.085 104.973,399.774 93.114,391.940 86.219 C 384.928 80.046,374.638 78.430,366.492 82.224 C 363.599 83.571,345.070 99.073,309.385 130.002 C 280.332 155.184,256.308 175.787,256.000 175.787 C 255.692 175.787,231.668 155.184,202.615 130.002 C 166.930 99.073,148.401 83.571,145.508 82.224 C 140.484 79.884,133.011 79.631,127.423 81.611 M250.453 280.641 C 249.045 281.012,246.562 282.008,244.935 282.855 C 243.307 283.702,213.836 308.783,179.442 338.590 C 121.724 388.612,116.728 393.153,114.561 397.566 C 108.327 410.260,114.869 426.145,128.146 430.555 C 133.409 432.303,141.581 431.918,146.169 429.705 C 147.948 428.847,173.282 407.460,202.466 382.179 C 231.650 356.898,255.740 336.213,255.999 336.213 C 256.257 336.213,280.609 357.124,310.114 382.680 C 367.484 432.374,366.696 431.787,375.893 431.787 C 393.599 431.787,405.196 413.362,397.436 397.560 C 395.266 393.142,390.321 388.643,333.188 339.107 C 299.144 309.590,269.454 284.385,267.209 283.096 C 262.801 280.564,255.060 279.430,250.453 280.641 " stroke="none" fill-rule="evenodd" fill="black"></path></svg>