<svg xmlns="http://www.w3.org/2000/svg" viewBox="0 0 512 512"><path d="M131.340 88.709 C 124.765 90.701,120.320 96.879,120.320 104.024 C 120.320 108.757,121.123 110.957,124.053 114.253 C 127.703 118.357,246.437 220.879,249.189 222.302 C 252.827 224.183,259.173 224.183,262.811 222.302 C 265.563 220.879,384.297 118.357,387.947 114.253 C 390.877 110.957,391.680 108.757,391.680 104.024 C 391.680 92.258,379.615 84.497,369.493 89.753 C 367.381 90.849,340.981 113.151,310.827 139.311 L 256.000 186.875 201.173 139.311 C 171.019 113.151,144.650 90.880,142.575 89.820 C 138.729 87.855,135.282 87.514,131.340 88.709 M248.182 290.351 C 245.496 291.997,152.921 371.729,131.110 391.181 C 121.798 399.486,120.327 401.754,120.323 407.818 C 120.319 413.543,123.153 418.812,127.779 421.681 C 132.405 424.549,140.389 424.505,144.355 421.588 C 145.920 420.437,171.475 398.453,201.144 372.735 C 230.813 347.016,255.498 325.973,256.000 325.973 C 256.502 325.973,281.187 347.016,310.856 372.735 C 340.525 398.453,366.080 420.437,367.645 421.588 C 371.611 424.505,379.595 424.549,384.221 421.681 C 388.847 418.812,391.681 413.543,391.677 407.818 C 391.673 401.754,390.202 399.486,380.890 391.181 C 359.079 371.729,266.504 291.997,263.818 290.351 C 261.576 288.977,259.367 288.435,256.000 288.435 C 252.633 288.435,250.424 288.977,248.182 290.351 " fill="black" stroke="none" fill-rule="evenodd"></path></svg>