<svg viewBox="0 0 512 512" xmlns="http://www.w3.org/2000/svg"><path d="M248.102 81.380 C 243.332 83.159,240.918 85.171,176.640 140.956 C 120.816 189.404,117.183 192.727,114.773 197.547 C 108.669 209.755,113.733 223.948,126.293 229.834 C 131.664 232.351,140.660 232.303,145.920 229.729 C 148.063 228.680,173.031 207.676,202.428 182.192 C 231.396 157.080,255.503 136.533,256.000 136.533 C 256.497 136.533,280.604 157.080,309.572 182.192 C 338.969 207.676,363.937 228.680,366.080 229.729 C 371.340 232.303,380.336 232.351,385.707 229.834 C 398.267 223.948,403.331 209.755,397.227 197.547 C 394.812 192.718,391.136 189.367,332.504 138.564 C 298.315 108.940,268.777 83.822,266.863 82.747 C 262.509 80.299,252.879 79.598,248.102 81.380 M129.556 281.036 C 127.361 281.653,123.840 283.472,121.731 285.079 C 111.727 292.699,109.229 305.063,115.451 316.160 C 116.790 318.547,136.094 335.825,179.643 373.613 C 213.895 403.335,243.456 428.482,245.333 429.496 C 250.226 432.138,261.774 432.138,266.667 429.496 C 268.544 428.482,298.112 403.335,332.373 373.613 C 391.097 322.670,394.813 319.280,397.227 314.453 C 403.346 302.214,398.411 288.415,385.707 282.242 C 380.430 279.678,371.455 279.703,366.080 282.297 C 363.883 283.357,339.700 303.690,309.572 329.808 C 280.604 354.920,256.497 375.467,256.000 375.467 C 255.503 375.467,231.396 354.920,202.428 329.808 C 173.461 304.696,148.143 283.389,146.167 282.460 C 141.431 280.232,134.525 279.640,129.556 281.036 " fill="black" stroke="none" fill-rule="evenodd"></path></svg>