<svg id="icons" xmlns="http://www.w3.org/2000/svg" viewBox="0 0 512 512"><path d="M118.784 33.451 C 118.221 34.014,117.760 35.080,117.760 35.819 C 117.760 36.559,127.648 60.194,139.733 88.342 C 161.572 139.206,161.723 139.522,164.305 139.774 C 166.817 140.020,168.140 138.375,204.411 89.936 C 225.041 62.384,242.413 38.941,243.015 37.839 C 243.819 36.368,243.868 35.382,243.199 34.131 C 242.300 32.452,241.382 32.427,181.047 32.427 C 134.555 32.427,119.561 32.673,118.784 33.451 M266.240 33.711 C 266.240 35.674,346.377 142.080,347.856 142.080 C 348.753 142.080,356.174 125.673,372.121 88.431 C 384.756 58.925,395.093 34.253,395.093 33.605 C 395.093 32.613,384.888 32.427,330.667 32.427 C 273.867 32.427,266.240 32.579,266.240 33.711 M85.591 57.387 C 81.839 61.509,25.209 154.069,25.192 156.106 C 25.154 160.423,25.380 160.440,80.496 160.211 C 129.980 160.007,131.589 159.949,132.766 158.338 C 133.435 157.424,133.757 155.969,133.483 155.105 C 131.709 149.517,91.235 56.800,90.315 56.216 C 88.507 55.070,87.463 55.329,85.591 57.387 M421.360 56.533 C 419.242 58.187,377.874 155.623,378.547 157.375 C 378.858 158.187,380.045 159.205,381.185 159.639 C 382.368 160.088,404.585 160.421,432.909 160.414 C 485.297 160.401,486.528 160.313,487.074 156.545 C 487.316 154.874,427.596 57.445,425.517 56.120 C 424.087 55.208,422.907 55.326,421.360 56.533 M224.955 115.917 C 208.499 137.866,196.267 154.946,196.267 155.975 C 196.267 156.962,197.120 158.368,198.163 159.098 C 199.833 160.268,206.751 160.427,256.000 160.427 C 305.249 160.427,312.167 160.268,313.837 159.098 C 314.880 158.368,315.733 156.962,315.733 155.975 C 315.733 154.946,303.501 137.866,287.045 115.917 C 261.341 81.635,258.111 77.653,256.000 77.653 C 253.889 77.653,250.659 81.635,224.955 115.917 M23.079 193.233 C 22.516 193.911,22.181 195.231,22.334 196.166 C 22.694 198.358,238.561 478.050,240.657 479.039 C 241.527 479.450,243.217 479.540,244.413 479.240 C 247.833 478.381,248.073 475.245,245.362 466.842 C 239.963 450.105,149.977 195.682,148.833 193.920 L 147.587 192.000 85.845 192.000 C 33.049 192.000,23.954 192.179,23.079 193.233 M185.661 193.341 C 184.923 194.078,184.320 195.163,184.320 195.752 C 184.320 197.977,252.629 390.326,253.650 390.974 C 255.011 391.839,256.982 391.843,258.333 390.985 C 259.348 390.340,327.680 197.979,327.680 195.768 C 327.680 195.170,327.077 194.078,326.339 193.341 C 325.142 192.144,317.588 192.000,256.000 192.000 C 194.412 192.000,186.858 192.144,185.661 193.341 M363.171 193.920 C 362.488 194.976,339.812 258.534,312.781 335.159 C 269.911 456.685,263.762 474.722,264.638 476.386 C 266.804 480.499,270.233 480.656,273.618 476.798 C 280.675 468.754,489.429 197.585,489.666 196.155 C 490.373 191.868,492.398 192.000,426.155 192.000 L 364.413 192.000 363.171 193.920 " stroke="none" fill="black" fill-rule="evenodd"></path></svg>