<svg id="icons" xmlns="http://www.w3.org/2000/svg" viewBox="0 0 512 512"><path d="M375.467 17.558 C 347.623 24.871,322.459 56.993,306.464 105.641 C 302.241 118.484,297.551 138.603,295.582 152.320 C 293.755 165.041,293.530 190.516,295.162 199.680 C 299.991 226.789,313.327 245.449,335.360 255.925 C 353.521 264.560,377.468 267.398,396.204 263.137 C 408.780 260.276,418.448 255.000,427.806 245.891 C 443.194 230.911,452.732 209.947,459.016 177.291 C 465.186 145.229,465.345 110.442,459.430 86.613 C 451.303 53.873,434.345 30.898,411.097 21.130 C 399.684 16.335,385.529 14.916,375.467 17.558 M397.939 50.398 C 409.933 54.969,419.863 67.402,425.841 85.333 C 433.230 107.501,433.663 141.265,426.977 174.080 C 422.107 197.983,416.033 211.972,406.187 221.958 C 397.035 231.241,393.545 232.506,377.173 232.475 C 368.016 232.458,363.377 232.059,359.326 230.939 C 342.375 226.256,332.525 216.778,328.116 200.906 C 326.158 193.862,325.459 172.964,326.795 161.439 C 332.872 108.996,357.961 57.862,381.960 49.002 C 385.962 47.525,391.721 48.028,397.939 50.398 M114.773 113.050 C 107.114 114.472,100.091 117.118,92.587 121.407 C 84.556 125.997,71.752 139.054,66.276 148.237 C 49.218 176.844,43.971 217.089,51.283 263.253 C 59.049 312.286,74.523 340.752,100.382 353.573 C 111.545 359.108,120.087 360.960,134.445 360.960 C 171.561 360.960,199.839 344.040,211.525 314.840 C 216.148 303.288,217.886 292.525,217.928 275.200 C 217.948 266.752,217.466 256.192,216.857 251.733 C 209.806 200.109,189.782 153.730,164.258 129.909 C 153.526 119.893,143.557 114.530,132.267 112.699 C 125.383 111.583,122.347 111.644,114.773 113.050 M132.970 146.345 C 145.237 152.056,160.207 172.867,170.108 197.973 C 181.264 226.262,186.662 254.116,185.797 278.934 C 185.144 297.680,181.934 307.133,173.281 315.791 C 165.678 323.398,153.848 327.889,138.430 329.023 C 108.629 331.213,92.779 312.628,84.156 265.387 C 78.265 233.112,79.001 203.217,86.231 181.097 C 95.054 154.106,116.072 138.478,132.970 146.345 M299.541 271.815 C 281.912 276.778,272.254 293.966,272.226 320.427 C 272.188 355.342,290.183 385.355,317.480 395.905 C 338.793 404.142,362.878 399.545,383.191 383.361 C 408.971 362.821,420.060 323.700,406.217 302.127 C 398.795 290.561,387.807 285.159,361.075 279.933 C 353.394 278.431,341.490 275.873,334.621 274.249 C 319.469 270.664,306.759 269.782,299.541 271.815 M327.680 305.560 C 333.547 306.929,345.756 309.554,354.811 311.392 C 372.982 315.082,378.826 317.320,380.117 321.084 C 381.449 324.967,379.316 334.884,375.454 342.761 C 366.103 361.838,345.374 372.134,328.779 365.945 C 318.948 362.278,309.613 350.145,305.848 336.141 C 303.011 325.586,304.294 305.092,307.927 302.942 C 309.752 301.862,314.571 302.500,327.680 305.560 M189.867 367.461 C 178.072 370.300,163.770 373.437,151.497 375.875 C 143.224 377.519,133.501 379.856,129.889 381.068 C 116.965 385.407,107.945 392.849,103.152 403.127 C 100.767 408.242,100.349 410.185,100.015 417.707 C 98.207 458.346,133.319 495.787,173.236 495.787 C 202.811 495.787,228.034 473.936,236.993 440.554 C 238.989 433.117,239.238 430.595,239.290 417.280 C 239.336 405.554,239.026 401.155,237.847 396.800 C 234.289 383.661,227.487 374.489,217.826 369.804 C 213.337 367.626,211.974 367.402,202.240 367.234 C 196.373 367.133,190.805 367.235,189.867 367.461 M205.550 400.754 C 207.590 405.232,208.469 416.176,207.435 424.238 C 204.066 450.507,187.287 467.027,167.627 463.433 C 157.199 461.526,145.181 453.219,139.068 443.694 C 135.360 437.915,132.446 429.673,131.779 423.077 C 130.807 413.462,133.327 412.079,162.560 406.178 C 171.947 404.283,183.467 401.809,188.160 400.681 C 192.853 399.553,198.456 398.602,200.610 398.568 C 204.040 398.514,204.653 398.785,205.550 400.754 " stroke="none" fill="black" fill-rule="evenodd"></path></svg>