<svg id="icons" xmlns="http://www.w3.org/2000/svg" viewBox="0 0 512 512"><path d="M375.286 17.537 C 364.119 20.245,350.556 29.399,340.769 40.834 C 318.773 66.535,301.909 108.134,295.575 152.320 C 293.767 164.928,293.544 189.557,295.149 199.253 C 298.547 219.782,307.409 236.043,321.280 247.203 C 339.995 262.260,373.465 269.130,397.771 262.903 C 428.991 254.904,448.769 228.123,458.232 181.034 C 470.743 118.780,462.542 68.018,435.144 38.118 C 419.347 20.879,395.427 12.654,375.286 17.537 M114.773 112.995 C 101.342 115.602,90.424 121.336,80.087 131.211 C 66.134 144.542,56.372 163.713,51.688 186.984 C 46.680 211.861,46.811 237.201,52.109 268.373 C 57.945 302.711,67.967 325.999,83.520 341.359 C 97.439 355.104,112.762 360.960,134.807 360.960 C 171.682 360.960,199.843 344.031,211.525 314.840 C 216.287 302.939,217.916 292.584,217.892 274.347 C 217.861 249.858,213.929 227.068,205.231 200.960 C 189.452 153.597,165.116 121.972,138.331 114.025 C 131.734 112.068,121.790 111.633,114.773 112.995 M298.527 272.087 C 289.319 275.141,282.882 280.806,278.346 289.848 C 273.763 298.985,272.660 305.150,272.719 321.280 C 272.767 334.205,273.022 336.717,275.054 344.320 C 279.310 360.242,286.912 373.325,297.672 383.242 C 308.185 392.932,318.668 397.803,332.738 399.535 C 346.687 401.252,363.286 396.938,376.768 388.092 C 397.536 374.464,410.805 351.797,411.936 328.013 C 412.229 321.857,412.012 316.919,411.317 313.933 C 408.708 302.723,400.909 293.402,389.689 288.083 C 381.863 284.373,377.534 283.173,356.931 279.006 C 347.648 277.128,336.021 274.615,331.093 273.423 C 318.794 270.446,305.161 269.887,298.527 272.087 M193.554 366.993 C 190.419 367.418,182.163 369.099,175.207 370.729 C 168.251 372.360,157.376 374.688,151.040 375.904 C 128.705 380.189,118.504 384.294,110.633 392.166 C 103.062 399.736,99.898 408.066,99.861 420.516 C 99.740 461.464,136.405 497.541,176.140 495.571 C 205.363 494.123,229.097 472.200,237.343 439.040 C 241.001 424.331,240.181 402.200,235.516 389.731 C 229.115 372.624,213.687 364.264,193.554 366.993 " stroke="none" fill="black" fill-rule="evenodd"></path></svg>