<svg id="icons" xmlns="http://www.w3.org/2000/svg" viewBox="0 0 512 512"><path d="M129.006 17.873 C 106.140 23.489,87.382 42.255,81.939 64.959 C 80.251 72.001,80.225 74.816,80.219 255.832 C 80.213 461.800,79.689 445.148,86.622 459.520 C 93.306 473.374,102.626 482.694,116.480 489.378 C 130.604 496.191,121.794 495.787,256.000 495.787 C 390.046 495.787,381.170 496.190,395.520 489.451 C 409.046 483.100,418.563 473.554,425.362 459.520 C 432.312 445.174,431.787 461.819,431.787 256.000 C 431.787 50.181,432.312 66.826,425.362 52.480 C 418.563 38.446,409.046 28.900,395.520 22.549 C 381.155 15.803,390.145 16.206,255.405 16.276 C 142.763 16.335,134.863 16.435,129.006 17.873 M309.024 64.872 C 313.687 66.167,318.865 72.202,319.617 77.221 C 320.715 84.541,317.322 91.182,310.837 94.405 C 307.834 95.897,304.493 96.016,259.179 96.253 C 228.194 96.414,209.003 96.186,205.934 95.619 C 197.646 94.087,192.064 87.810,192.019 79.973 C 191.984 73.940,196.115 67.706,201.813 65.195 C 205.038 63.774,303.997 63.475,309.024 64.872 M314.453 273.375 C 332.111 278.099,343.923 293.717,343.881 312.286 C 343.831 334.100,327.540 355.062,308.792 357.435 C 287.453 360.137,268.020 342.876,264.506 318.099 C 261.652 297.976,273.933 278.633,292.783 273.564 C 298.636 271.990,308.940 271.900,314.453 273.375 M328.861 379.234 C 353.520 385.841,371.990 400.752,380.033 420.544 C 384.564 431.695,384.943 438.659,381.274 443.324 C 377.489 448.136,379.742 448.000,303.730 448.000 C 225.906 448.000,229.734 448.279,226.065 442.343 C 223.621 438.389,223.779 432.744,226.566 424.405 C 234.379 401.028,255.130 384.381,284.349 378.051 C 296.114 375.502,317.005 376.057,328.861 379.234 " stroke="none" fill="black" fill-rule="evenodd"></path></svg>