<svg id="icons" xmlns="http://www.w3.org/2000/svg" viewBox="0 0 512 512"><path d="M244.114 17.571 C 236.299 19.672,228.862 23.882,223.249 29.384 C 215.597 36.883,22.983 319.574,19.332 328.663 C 17.360 333.573,16.726 336.692,16.409 343.041 C 15.684 357.597,20.091 369.110,30.291 379.307 C 36.236 385.249,36.768 385.548,133.785 437.333 C 187.421 465.963,234.461 490.727,238.319 492.366 C 245.077 495.237,245.723 495.346,256.000 495.346 C 266.278 495.346,266.922 495.237,273.676 492.366 C 277.531 490.727,324.435 466.016,377.907 437.451 C 447.625 400.207,476.370 384.429,479.517 381.676 C 495.448 367.740,500.348 343.516,491.003 324.899 C 489.768 322.439,444.945 256.107,391.395 177.493 C 316.927 68.170,292.791 33.343,288.752 29.384 C 283.009 23.756,275.650 19.647,267.525 17.530 C 261.261 15.899,250.263 15.918,244.114 17.571 M239.577 357.888 L 239.360 457.215 146.773 407.849 C 85.708 375.289,53.402 357.608,51.882 355.915 C 48.809 352.491,47.374 347.024,48.385 342.592 C 48.940 340.159,76.927 298.432,144.264 199.641 L 239.360 60.126 239.577 159.343 C 239.696 213.912,239.696 303.257,239.577 357.888 M368.490 200.660 C 434.688 297.826,462.756 339.697,463.445 342.313 C 464.810 347.493,463.331 352.483,459.262 356.429 C 457.149 358.478,428.908 373.977,373.760 403.353 C 328.469 427.478,287.093 449.521,281.813 452.337 L 272.213 457.456 272.213 258.838 C 272.213 92.234,272.399 60.422,273.363 61.470 C 273.996 62.158,316.803 124.793,368.490 200.660 " stroke="none" fill="black" fill-rule="evenodd"></path></svg>