<svg id="icons" xmlns="http://www.w3.org/2000/svg" viewBox="0 0 512 512"><path d="M244.053 17.564 C 235.445 19.835,228.732 23.767,222.439 30.223 C 217.898 34.883,194.378 68.895,119.716 178.773 C 66.458 257.152,21.986 323.035,20.891 325.181 C 11.083 344.390,17.064 370.110,34.342 383.022 C 40.013 387.260,235.160 491.567,241.493 493.746 C 248.290 496.083,264.763 495.940,271.394 493.486 C 276.725 491.512,470.994 387.848,476.637 383.965 C 484.771 378.369,491.747 367.891,494.488 357.154 C 497.005 347.296,495.624 334.022,491.176 325.317 C 490.041 323.097,445.539 257.152,392.282 178.773 C 317.627 68.903,294.102 34.883,289.560 30.223 C 283.155 23.650,276.466 19.787,267.554 17.512 C 261.241 15.900,250.268 15.924,244.053 17.564 M238.136 68.297 C 239.760 69.166,239.787 72.200,239.787 258.656 L 239.787 448.131 237.292 450.626 C 235.709 452.209,233.915 453.120,232.380 453.120 C 230.817 453.120,198.704 436.409,141.647 405.904 C 46.789 355.189,50.712 357.563,48.570 349.606 C 47.900 347.120,47.916 345.133,48.629 342.304 C 49.359 339.403,72.783 304.314,140.967 203.982 C 191.215 130.042,232.927 69.067,233.660 68.480 C 235.280 67.183,236.001 67.154,238.136 68.297 " stroke="none" fill="black" fill-rule="evenodd"></path></svg>