<svg id="icons" xmlns="http://www.w3.org/2000/svg" viewBox="0 0 512 512"><path d="M124.160 33.771 C 84.401 40.817,50.659 70.112,37.741 108.800 C 31.845 126.459,32.107 120.408,31.774 246.613 C 31.452 368.617,31.727 379.948,35.369 394.667 C 40.980 417.347,52.905 436.979,70.273 452.134 C 89.247 468.689,111.155 477.677,137.176 479.581 C 151.327 480.616,360.638 480.619,374.783 479.584 C 410.903 476.941,440.820 459.866,460.771 430.507 C 471.967 414.032,478.024 396.100,479.581 374.824 C 480.616 360.673,480.619 151.362,479.584 137.217 C 478.014 115.764,472.045 98.083,460.771 81.493 C 444.867 58.090,423.102 42.841,394.667 35.182 L 386.133 32.883 258.560 32.722 C 151.701 32.587,129.878 32.757,124.160 33.771 M387.840 66.360 C 416.432 74.419,438.136 96.280,445.648 124.587 L 447.573 131.840 447.573 256.000 L 447.573 380.160 445.648 387.413 C 438.080 415.932,415.932 438.080,387.413 445.648 L 380.160 447.573 256.000 447.573 L 131.840 447.573 124.587 445.593 C 95.640 437.691,73.942 416.014,66.352 387.413 L 64.427 380.160 64.427 256.000 L 64.427 131.840 66.352 124.587 C 74.416 94.202,99.334 70.843,129.565 65.327 C 134.998 64.336,156.856 64.159,258.560 64.284 L 381.013 64.435 387.840 66.360 M232.533 85.341 C 205.106 88.726,182.246 95.627,158.485 107.695 C 140.666 116.744,118.778 132.566,108.721 143.666 C 94.092 159.813,91.728 184.340,103.012 202.874 C 106.575 208.725,139.322 247.660,145.367 253.232 C 152.738 260.027,162.437 263.653,173.285 263.670 C 181.977 263.684,187.068 262.046,199.680 255.178 C 240.528 232.935,271.595 232.930,312.320 255.163 C 324.923 262.042,330.014 263.684,338.715 263.670 C 349.776 263.653,359.403 259.975,367.009 252.860 C 373.358 246.921,405.360 208.805,408.988 202.861 C 420.275 184.367,417.906 159.811,403.279 143.666 C 392.200 131.437,370.369 116.074,349.482 105.809 C 329.826 96.148,310.776 90.099,288.853 86.557 C 278.991 84.964,242.051 84.166,232.533 85.341 M285.440 118.567 C 315.004 123.536,342.083 135.111,364.988 152.572 C 375.353 160.474,380.710 165.640,382.404 169.368 C 384.404 173.772,384.396 180.397,382.384 184.747 C 380.981 187.782,349.293 225.932,344.965 229.796 C 344.023 230.638,341.889 231.547,340.223 231.818 C 337.620 232.240,335.779 231.525,327.104 226.724 C 300.717 212.117,275.729 205.610,250.533 206.782 C 227.972 207.832,209.590 213.502,184.013 227.300 C 174.020 232.692,170.795 233.166,167.047 229.796 C 162.741 225.925,131.641 188.596,129.927 185.242 C 127.548 180.586,127.415 174.158,129.600 169.387 C 131.488 165.265,136.901 160.109,147.672 152.173 C 175.921 131.361,206.446 119.780,241.493 116.577 C 250.429 115.761,275.498 116.896,285.440 118.567 " stroke="none" fill="black" fill-rule="evenodd"></path></svg>