<svg id="icons" xmlns="http://www.w3.org/2000/svg" viewBox="0 0 512 512"><path d="M242.773 36.379 C 174.878 67.075,134.457 79.913,63.076 93.453 C 52.443 95.470,42.561 97.732,41.116 98.479 C 37.116 100.548,34.236 104.948,33.186 110.595 C 31.799 118.053,32.712 172.240,34.472 186.880 C 44.416 269.635,76.912 339.262,132.109 396.079 C 165.375 430.322,206.310 459.612,244.053 476.179 C 255.955 481.403,258.315 481.108,276.480 472.133 C 333.900 443.761,385.520 398.516,420.212 346.151 C 452.073 298.058,469.966 248.324,477.512 186.880 C 479.300 172.326,480.224 118.177,478.814 110.595 C 477.765 104.955,474.884 100.548,470.898 98.487 C 469.461 97.744,460.553 95.653,451.103 93.842 C 378.290 79.886,346.286 70.039,280.924 41.483 C 255.873 30.539,255.733 30.520,242.773 36.379 M273.067 72.995 C 328.500 97.349,367.024 109.590,425.813 121.530 L 447.573 125.950 447.466 146.388 C 447.175 201.583,435.048 252.665,411.416 298.237 C 395.375 329.171,378.835 351.607,352.863 377.661 C 331.835 398.755,314.103 412.930,289.141 428.600 C 280.767 433.857,257.871 446.293,256.567 446.293 C 256.255 446.293,256.000 360.620,256.000 255.909 C 256.000 103.927,256.215 65.616,257.067 65.979 C 257.653 66.229,264.853 69.387,273.067 72.995 " stroke="none" fill="black" fill-rule="evenodd"></path></svg>