<svg id="icons" xmlns="http://www.w3.org/2000/svg" viewBox="0 0 512 512"><path d="M82.347 1.162 C 77.081 3.610,75.425 6.630,66.141 30.720 C 61.167 43.627,56.442 54.842,55.642 55.642 C 54.842 56.442,43.627 61.167,30.720 66.141 C 15.062 72.175,6.437 75.950,4.802 77.486 C 1.843 80.262,-0.000 84.307,0.000 88.023 C 0.000 91.905,3.194 98.025,6.162 99.830 C 7.546 100.672,18.918 105.286,31.433 110.084 C 43.947 114.882,54.829 119.436,55.613 120.204 C 56.398 120.972,60.899 131.678,65.615 143.995 C 70.332 156.312,74.780 167.529,75.500 168.922 C 76.220 170.314,78.473 172.429,80.506 173.620 C 86.987 177.418,95.130 175.998,99.355 170.333 C 100.443 168.874,105.310 157.319,110.170 144.656 C 115.031 131.993,119.598 121.042,120.320 120.320 C 121.042 119.598,131.993 115.031,144.656 110.170 C 157.319 105.310,168.874 100.443,170.333 99.355 C 177.483 94.024,177.403 80.988,170.192 76.264 C 169.005 75.486,157.586 70.840,144.817 65.940 C 132.048 61.040,120.978 56.391,120.217 55.609 C 119.456 54.827,115.095 44.395,110.525 32.427 C 105.955 20.459,101.501 9.265,100.628 7.553 C 97.607 1.629,88.324 -1.616,82.347 1.162 M392.187 34.361 C 390.354 35.409,388.146 37.227,387.280 38.400 C 386.415 39.573,380.315 54.549,373.726 71.680 C 367.136 88.811,361.079 103.497,360.266 104.316 C 359.453 105.135,344.475 111.324,326.982 118.070 C 308.683 125.126,294.307 131.151,293.130 132.258 C 292.004 133.315,290.485 135.440,289.755 136.979 C 288.099 140.468,288.033 147.812,289.630 150.869 C 292.498 156.358,295.161 157.712,327.797 170.276 C 351.181 179.279,360.021 183.057,360.960 184.451 C 361.664 185.497,367.554 200.199,374.048 217.123 C 386.504 249.581,387.501 251.460,393.813 254.382 C 400.301 257.386,408.200 255.481,412.368 249.906 C 413.546 248.330,419.792 233.216,426.248 216.320 C 432.932 198.825,438.763 184.822,439.792 183.792 C 440.822 182.763,454.825 176.932,472.320 170.248 C 489.216 163.792,504.330 157.546,505.906 156.368 C 511.481 152.200,513.386 144.301,510.382 137.813 C 507.170 130.875,508.386 131.487,464.100 114.529 C 452.069 109.923,441.399 105.597,440.388 104.917 C 439.076 104.033,435.044 94.571,426.276 71.797 C 413.712 39.161,412.358 36.498,406.869 33.630 C 403.298 31.765,396.100 32.123,392.187 34.361 M200.280 129.231 C 195.663 130.878,190.792 134.287,188.199 137.686 C 186.920 139.363,177.243 163.330,165.531 193.826 C 154.291 223.094,144.423 248.342,143.602 249.933 C 142.781 251.524,140.759 253.702,139.108 254.772 C 137.457 255.843,112.509 265.783,83.667 276.860 C 54.825 287.937,29.590 297.960,27.589 299.133 C 12.530 307.958,12.530 332.042,27.589 340.867 C 29.590 342.040,54.825 352.063,83.667 363.140 C 112.509 374.217,137.457 384.157,139.108 385.228 C 140.759 386.298,142.781 388.476,143.602 390.067 C 144.423 391.658,154.291 416.906,165.531 446.174 C 177.516 477.381,186.908 500.621,188.242 502.370 C 192.537 508.001,200.651 511.985,207.845 511.995 C 214.687 512.005,220.071 509.670,225.227 504.457 L 230.007 499.627 250.786 445.440 C 262.214 415.637,272.498 390.005,273.640 388.479 C 274.781 386.953,276.837 385.125,278.208 384.416 C 279.578 383.707,304.145 374.112,332.800 363.093 C 361.455 352.075,385.945 342.511,387.223 341.840 C 390.572 340.083,395.456 334.687,397.724 330.240 C 400.430 324.936,400.451 316.153,397.774 310.187 C 395.711 305.589,391.934 301.212,387.840 298.673 C 386.432 297.800,361.727 288.029,332.939 276.960 C 304.151 265.890,279.767 256.407,278.752 255.886 C 273.402 253.138,272.813 251.849,251.193 195.546 L 230.008 140.373 225.228 135.543 C 221.567 131.842,219.380 130.394,215.883 129.356 C 210.367 127.718,204.649 127.672,200.280 129.231 " stroke="none" fill="black" fill-rule="evenodd"></path></svg>