<svg id="icons" xmlns="http://www.w3.org/2000/svg" viewBox="0 0 512 512"><path d="M227.870 32.862 C 157.963 42.221,98.326 81.232,62.734 140.885 C 46.491 168.109,35.636 200.949,32.352 232.808 C 30.899 246.893,31.785 277.534,34.023 290.607 C 42.250 338.669,63.344 379.791,97.280 413.924 C 133.537 450.392,179.274 472.793,230.375 479.111 C 243.883 480.781,268.536 480.808,282.557 479.168 C 385.917 467.077,467.077 385.917,479.168 282.557 C 480.808 268.536,480.781 243.883,479.111 230.375 C 472.860 179.822,450.908 134.564,415.147 98.502 C 380.811 63.879,339.445 42.420,290.928 34.061 C 277.141 31.686,241.691 31.012,227.870 32.862 M304.267 105.537 C 310.277 107.585,316.878 114.382,318.649 120.349 C 321.489 129.910,319.588 137.910,312.882 144.616 C 301.068 156.430,282.204 153.318,274.234 138.240 C 271.865 133.759,272.014 121.947,274.498 117.333 C 280.301 106.553,292.760 101.616,304.267 105.537 M371.441 147.046 C 382.881 153.751,387.040 167.357,381.167 178.869 C 372.504 195.851,348.868 196.200,339.075 179.491 C 336.037 174.306,335.338 165.525,337.511 159.834 C 339.524 154.564,344.995 148.717,350.293 146.172 C 356.249 143.312,365.739 143.704,371.441 147.046 M297.398 177.870 C 305.532 181.268,311.746 190.899,311.746 200.107 C 311.746 213.520,301.595 223.536,288.000 223.536 C 264.067 223.536,255.387 193.998,275.148 179.803 C 280.616 175.874,290.555 175.011,297.398 177.870 " stroke="none" fill="black" fill-rule="evenodd"></path></svg>