<svg id="icons" xmlns="http://www.w3.org/2000/svg" viewBox="0 0 512 512"><path d="M120.175 34.156 C 113.914 37.464,111.787 42.791,111.787 55.167 L 111.787 64.000 101.195 64.000 C 79.025 64.000,64.859 69.315,51.157 82.773 C 39.718 94.009,33.959 106.603,32.321 123.966 C 31.208 135.753,31.643 141.530,33.758 143.077 C 36.072 144.769,475.928 144.769,478.242 143.077 C 480.357 141.530,480.792 135.753,479.679 123.966 C 478.041 106.603,472.282 94.009,460.843 82.773 C 447.161 69.334,432.970 64.000,410.895 64.000 L 400.393 64.000 400.090 53.973 C 399.817 44.962,399.558 43.557,397.524 40.097 C 393.280 32.879,383.949 30.241,376.358 34.114 C 369.933 37.392,367.787 42.664,367.787 55.167 L 367.787 64.000 256.090 64.000 L 144.393 64.000 144.090 53.973 C 143.817 44.962,143.558 43.557,141.524 40.097 C 137.281 32.882,127.658 30.203,120.175 34.156 M33.656 176.998 C 32.030 178.188,32.000 180.440,32.000 301.371 C 32.000 439.401,31.535 428.892,38.273 443.215 C 44.399 456.237,54.900 466.865,67.840 473.138 C 83.321 480.643,65.680 480.000,256.000 480.000 C 417.604 480.000,424.779 479.935,430.507 478.413 C 454.475 472.043,472.043 454.475,478.413 430.507 C 479.925 424.814,480.000 418.740,480.000 301.371 C 480.000 180.440,479.970 178.188,478.344 176.998 C 475.849 175.173,36.151 175.173,33.656 176.998 M213.760 211.176 C 223.728 214.123,231.835 218.534,238.532 224.653 C 260.313 244.553,261.490 278.994,241.142 301.004 L 236.598 305.920 240.835 309.327 C 245.070 312.731,251.559 320.658,254.043 325.461 C 259.350 335.723,261.992 351.602,260.392 363.620 C 257.073 388.547,240.692 406.048,213.708 413.497 C 205.911 415.649,186.892 416.127,178.993 414.370 C 166.371 411.562,154.199 404.290,144.037 393.487 C 133.968 382.784,131.260 375.598,134.433 368.004 C 136.126 363.950,137.922 362.012,141.833 360.016 C 148.383 356.672,156.874 358.552,161.133 364.289 C 162.387 365.978,166.107 370.082,169.398 373.410 C 174.015 378.077,176.551 379.903,180.492 381.396 C 190.817 385.311,203.642 384.466,214.218 379.174 C 225.106 373.727,229.176 366.394,228.522 353.399 C 228.079 344.584,226.122 339.615,221.121 334.614 C 215.051 328.544,200.448 322.560,191.705 322.560 C 182.528 322.560,174.722 313.413,176.156 304.339 C 177.405 296.431,183.023 291.695,192.427 290.623 C 210.971 288.509,223.541 278.017,223.565 264.632 C 223.589 251.246,215.245 243.339,198.207 240.605 C 185.588 238.580,175.865 241.948,167.794 251.140 C 161.985 257.757,157.477 259.974,151.693 259.060 C 140.714 257.326,134.888 245.436,140.053 235.311 C 144.177 227.229,156.593 216.852,167.253 212.579 C 175.826 209.143,182.181 208.210,194.560 208.570 C 203.862 208.840,207.559 209.342,213.760 211.176 M359.148 213.706 C 362.673 215.528,366.774 220.559,367.351 223.768 C 367.627 225.304,367.742 265.948,367.606 314.089 L 367.360 401.619 365.227 404.779 C 362.314 409.094,355.305 412.542,350.701 411.924 C 345.371 411.209,340.068 407.637,338.002 403.369 C 336.230 399.708,336.213 399.021,336.213 328.264 C 336.213 288.988,335.977 256.853,335.688 256.853 C 335.399 256.853,330.195 260.534,324.125 265.033 C 318.054 269.532,312.051 273.753,310.784 274.414 C 307.812 275.965,300.092 275.970,297.131 274.423 C 294.476 273.036,290.797 269.258,289.335 266.418 C 286.858 261.606,288.730 252.361,292.955 248.542 C 295.690 246.069,337.462 215.346,339.786 214.097 C 344.756 211.428,354.367 211.233,359.148 213.706 " stroke="none" fill="black" fill-rule="evenodd"></path></svg>