<svg viewBox="0 0 512 512" xmlns="http://www.w3.org/2000/svg"><path d="M250.689 89.057 C 248.942 89.706,246.243 91.341,244.691 92.692 C 243.140 94.042,215.126 118.315,182.438 146.633 C 142.486 181.243,122.565 199.046,121.663 200.948 C 119.994 204.464,119.921 211.801,121.524 214.869 C 122.934 217.569,126.698 221.206,129.665 222.738 C 132.448 224.174,139.881 224.112,142.687 222.629 C 143.924 221.975,169.752 199.936,200.082 173.653 C 230.413 147.371,255.576 125.867,256.000 125.867 C 256.424 125.867,281.587 147.371,311.918 173.653 C 342.248 199.936,368.076 221.975,369.313 222.629 C 372.310 224.213,379.584 224.139,382.740 222.491 C 385.570 221.014,389.263 217.297,390.722 214.456 C 392.112 211.752,391.896 204.233,390.334 200.942 C 389.427 199.030,368.836 180.642,327.124 144.493 C 293.098 115.006,264.340 90.394,263.218 89.801 C 260.004 88.102,254.193 87.757,250.689 89.057 M129.280 289.420 C 126.562 290.920,122.831 294.629,121.524 297.131 C 119.911 300.217,119.998 307.543,121.689 311.106 C 123.336 314.577,244.843 420.297,249.821 422.591 C 253.880 424.461,258.120 424.461,262.179 422.591 C 267.157 420.297,388.664 314.577,390.311 311.106 C 392.002 307.543,392.089 300.217,390.476 297.131 C 389.106 294.508,385.318 290.800,382.563 289.384 C 379.702 287.914,371.991 288.215,368.839 289.920 C 367.320 290.741,341.483 312.725,311.424 338.773 C 281.364 364.821,256.424 386.133,256.000 386.133 C 255.576 386.133,230.636 364.821,200.576 338.773 C 170.517 312.725,144.680 290.741,143.161 289.920 C 140.028 288.226,131.971 287.935,129.280 289.420 " stroke="none" fill="black" fill-rule="evenodd"></path></svg>