<svg id="icons" xmlns="http://www.w3.org/2000/svg" viewBox="0 0 512 512"><path d="M180.907 32.427 L 109.653 32.853 104.960 35.162 C 102.379 36.431,98.474 39.311,96.284 41.562 C 93.760 44.155,80.973 63.940,61.377 95.573 C 18.765 164.360,19.064 163.858,17.448 169.417 C 15.482 176.180,16.083 185.015,18.930 191.193 C 21.189 196.098,226.327 463.041,233.478 470.382 C 235.640 472.601,239.575 475.481,242.224 476.782 C 246.558 478.910,247.936 479.147,256.000 479.147 C 264.125 479.147,265.422 478.920,269.916 476.713 C 272.642 475.375,276.580 472.495,278.668 470.313 C 286.042 462.609,490.886 195.931,493.069 191.193 C 497.288 182.041,496.394 170.119,490.779 160.634 C 489.461 158.408,472.930 131.627,454.044 101.120 C 431.995 65.506,418.278 44.189,415.719 41.562 C 413.527 39.311,409.621 36.431,407.040 35.162 L 402.347 32.853 379.307 32.643 C 321.667 32.117,246.382 32.035,180.907 32.427 M223.027 65.067 C 221.143 68.171,164.398 143.360,163.938 143.360 C 163.536 143.360,133.042 73.168,129.999 65.237 C 129.588 64.166,135.837 64.000,176.599 64.000 C 214.035 64.000,223.542 64.218,223.027 65.067 M382.001 65.237 C 378.958 73.168,348.464 143.360,348.062 143.360 C 347.602 143.360,290.857 68.171,288.973 65.067 C 288.458 64.218,297.965 64.000,335.401 64.000 C 376.163 64.000,382.412 64.166,382.001 65.237 M287.412 116.582 C 304.453 139.360,318.606 158.543,318.863 159.211 C 319.264 160.256,310.445 160.427,256.000 160.427 C 201.555 160.427,192.736 160.256,193.137 159.211 C 193.736 157.652,255.432 75.168,256.000 75.168 C 256.235 75.168,270.370 93.804,287.412 116.582 M135.680 160.199 C 135.680 160.324,118.551 160.427,97.615 160.427 C 62.997 160.427,59.598 160.302,60.077 159.055 C 60.367 158.300,70.451 141.769,82.487 122.318 L 104.370 86.954 120.025 123.463 C 128.635 143.543,135.680 160.075,135.680 160.199 M429.938 122.949 C 441.718 141.994,451.602 158.218,451.903 159.002 C 452.408 160.320,449.584 160.427,414.314 160.427 C 392.569 160.427,376.300 160.102,376.462 159.672 C 379.858 150.663,407.620 87.331,407.994 87.741 C 408.283 88.060,418.158 103.903,429.938 122.949 M183.016 289.280 C 201.819 342.549,218.834 390.736,220.827 396.362 C 223.542 404.024,224.049 406.166,222.847 404.896 C 221.609 403.588,72.150 209.828,61.090 195.192 L 58.666 191.985 103.748 192.206 L 148.830 192.427 183.016 289.280 M325.527 202.880 C 282.304 325.632,256.404 398.507,256.000 398.507 C 255.596 398.507,229.696 325.632,186.473 202.880 L 182.642 192.000 256.000 192.000 L 329.358 192.000 325.527 202.880 M452.507 193.067 C 452.055 193.653,414.929 241.845,370.004 300.160 C 325.080 358.475,288.172 406.187,287.986 406.187 C 287.801 406.187,288.167 404.747,288.799 402.987 C 289.432 401.227,306.087 354.091,325.811 298.240 C 345.536 242.389,362.079 195.637,362.576 194.347 L 363.478 192.000 408.403 192.000 C 444.213 192.000,453.162 192.216,452.507 193.067 " stroke="none" fill="black" fill-rule="evenodd"></path></svg>