<svg id="icons" xmlns="http://www.w3.org/2000/svg" viewBox="0 0 512 512"><path d="M130.133 17.609 C 126.848 18.300,120.704 20.545,116.480 22.597 C 102.603 29.337,93.328 38.614,86.602 52.480 C 79.726 66.654,80.213 51.123,80.213 256.000 C 80.213 460.877,79.726 445.346,86.602 459.520 C 93.330 473.389,102.611 482.670,116.480 489.398 C 130.382 496.142,122.616 495.787,256.000 495.787 C 389.163 495.787,381.405 496.138,395.520 489.472 C 409.059 483.078,418.538 473.570,425.383 459.520 C 432.277 445.368,431.787 460.939,431.787 256.000 C 431.787 51.061,432.277 66.632,425.383 52.480 C 418.538 38.430,409.059 28.922,395.520 22.528 C 381.387 15.854,389.266 16.205,255.396 16.283 C 153.805 16.342,135.220 16.539,130.133 17.609 M379.030 49.924 C 388.259 53.882,394.904 60.660,398.164 69.442 C 399.740 73.688,399.787 79.049,399.787 256.000 C 399.787 432.951,399.740 438.312,398.164 442.558 C 394.818 451.571,387.571 458.818,378.558 462.164 C 374.340 463.730,370.052 463.787,256.000 463.787 C 141.948 463.787,137.660 463.730,133.442 462.164 C 124.660 458.904,117.882 452.259,113.924 443.030 C 112.232 439.084,112.211 437.046,111.990 258.192 C 111.744 58.691,111.407 71.717,117.039 62.940 C 121.687 55.697,129.440 50.300,137.499 48.697 C 139.549 48.290,193.835 48.014,258.133 48.085 C 373.097 48.211,375.106 48.242,379.030 49.924 M202.567 64.925 C 201.104 65.350,198.349 67.386,196.446 69.451 C 192.351 73.893,191.133 79.067,192.838 84.778 C 194.188 89.305,199.469 94.417,203.727 95.320 C 207.910 96.207,304.090 96.207,308.273 95.320 C 312.531 94.417,317.812 89.305,319.162 84.778 C 320.864 79.076,319.648 73.892,315.571 69.470 C 313.511 67.234,310.881 65.387,309.024 64.872 C 305.110 63.785,206.328 63.834,202.567 64.925 M292.783 273.564 C 262.289 281.764,254.249 322.072,278.246 346.445 C 296.869 365.359,325.712 359.596,338.386 334.428 C 351.370 308.647,340.248 280.276,314.453 273.375 C 308.940 271.900,298.636 271.990,292.783 273.564 M284.349 378.051 C 255.130 384.381,234.379 401.028,226.566 424.405 C 223.779 432.744,223.621 438.389,226.065 442.343 C 229.734 448.279,225.906 448.000,303.730 448.000 C 379.742 448.000,377.489 448.136,381.274 443.324 C 383.803 440.109,384.416 435.855,383.165 430.194 C 377.824 406.009,357.094 386.597,328.635 379.132 C 316.946 376.066,295.884 375.552,284.349 378.051 " stroke="none" fill="black" fill-rule="evenodd"></path></svg>