<svg id="icons" xmlns="http://www.w3.org/2000/svg" viewBox="0 0 512 512"><path d="M221.862 33.383 C 205.672 42.826,191.512 51.370,190.394 52.370 C 187.673 54.802,185.211 60.327,185.211 64.000 C 185.211 73.745,195.315 81.909,204.413 79.515 C 206.312 79.015,214.483 74.727,222.571 69.987 C 230.659 65.246,237.842 61.150,238.532 60.886 C 239.619 60.468,239.787 63.916,239.791 86.735 C 239.794 102.215,240.159 114.375,240.678 116.240 C 242.463 122.668,249.383 127.963,256.000 127.963 C 262.617 127.963,269.537 122.668,271.322 116.240 C 271.841 114.375,272.206 102.215,272.209 86.735 C 272.213 63.916,272.381 60.468,273.468 60.886 C 274.158 61.150,281.341 65.246,289.429 69.987 C 297.517 74.727,305.688 79.015,307.587 79.515 C 316.685 81.909,326.789 73.745,326.789 64.000 C 326.789 60.338,324.337 54.821,321.606 52.339 C 320.488 51.324,306.336 42.780,290.156 33.353 C 261.538 16.678,260.611 16.213,256.018 16.213 C 251.423 16.213,250.506 16.674,221.862 33.383 M111.360 97.634 C 106.698 99.710,56.802 129.476,53.843 131.945 C 47.877 136.925,47.826 137.289,47.810 174.933 C 47.802 195.547,48.139 209.873,48.678 211.814 C 50.438 218.152,57.347 223.511,63.814 223.555 C 67.266 223.578,72.269 221.555,74.949 219.053 C 79.484 214.818,79.757 213.433,80.213 192.294 L 80.640 172.535 92.160 179.381 C 126.012 199.497,126.359 199.680,130.661 199.680 C 135.678 199.680,138.805 198.542,141.943 195.572 C 145.517 192.191,147.017 188.731,147.017 183.872 C 147.017 175.178,145.780 174.050,118.295 157.676 L 95.363 144.014 110.882 134.811 C 119.417 129.749,127.198 124.898,128.174 124.031 C 132.297 120.364,134.216 112.240,132.212 106.936 C 129.259 99.120,118.649 94.387,111.360 97.634 M388.693 98.044 C 380.033 102.054,376.654 110.697,380.485 119.040 C 382.627 123.704,383.446 124.331,401.118 134.811 L 416.637 144.014 393.705 157.676 C 366.220 174.050,364.983 175.178,364.983 183.872 C 364.983 188.731,366.483 192.191,370.057 195.572 C 373.195 198.542,376.322 199.680,381.339 199.680 C 385.639 199.680,386.129 199.422,419.840 179.403 L 431.360 172.562 431.787 192.308 C 432.243 213.432,432.516 214.819,437.051 219.053 C 439.731 221.555,444.734 223.578,448.186 223.555 C 454.653 223.511,461.562 218.152,463.322 211.814 C 463.861 209.873,464.198 195.547,464.190 174.933 C 464.174 137.289,464.123 136.922,458.157 131.948 C 454.973 129.294,404.875 99.464,400.454 97.590 C 396.714 96.005,392.769 96.158,388.693 98.044 M193.976 209.824 C 188.575 212.348,185.600 217.383,185.600 224.000 C 185.600 233.200,186.380 233.905,214.946 250.522 L 239.766 264.960 239.781 293.120 C 239.791 311.001,240.140 322.519,240.738 324.674 C 241.999 329.214,246.994 334.084,251.687 335.347 C 260.232 337.649,269.010 332.778,271.322 324.454 C 271.844 322.575,272.214 309.788,272.230 293.120 L 272.255 264.960 297.035 250.567 C 325.584 233.984,326.400 233.246,326.400 224.000 C 326.400 217.158,323.421 212.289,317.680 209.749 C 310.013 206.358,308.046 207.066,280.750 223.028 C 267.104 231.008,255.894 237.041,255.204 236.776 C 254.528 236.517,243.390 230.114,230.454 222.547 C 209.000 209.998,206.521 208.762,202.240 208.473 C 198.847 208.244,196.557 208.618,193.976 209.824 M57.565 290.031 C 53.356 291.942,49.856 295.942,48.678 300.186 C 48.139 302.127,47.802 316.453,47.810 337.067 C 47.823 368.018,47.953 371.052,49.400 374.187 C 50.266 376.064,51.890 378.432,53.007 379.450 C 54.125 380.467,67.904 389.044,83.627 398.510 L 112.213 415.720 117.854 415.412 C 122.469 415.160,124.078 414.660,126.702 412.658 C 130.992 409.386,133.434 403.785,132.917 398.405 C 132.232 391.277,130.087 389.207,112.004 378.232 C 99.345 370.549,95.825 368.042,96.644 367.290 C 97.229 366.754,106.923 360.832,118.187 354.131 C 129.451 347.429,139.910 340.778,141.429 339.349 C 149.292 331.959,147.899 319.818,138.560 314.346 C 135.335 312.456,134.004 312.174,129.746 312.482 C 125.046 312.822,123.335 313.682,102.472 326.194 L 80.213 339.543 80.209 321.452 C 80.206 311.501,79.807 301.932,79.322 300.186 C 77.537 293.759,70.617 288.464,64.000 288.464 C 62.357 288.464,59.461 289.169,57.565 290.031 M442.033 289.786 C 438.401 291.361,435.506 293.979,433.626 297.387 C 432.467 299.488,432.137 303.487,431.787 319.692 L 431.360 339.438 419.840 332.597 C 386.129 312.578,385.639 312.320,381.339 312.320 C 376.322 312.320,373.195 313.458,370.057 316.428 C 366.483 319.809,364.983 323.269,364.983 328.128 C 364.983 336.822,366.220 337.950,393.705 354.324 L 416.637 367.986 401.118 377.189 C 383.446 387.669,382.627 388.296,380.485 392.960 C 376.654 401.303,380.033 409.946,388.693 413.956 C 392.769 415.842,396.714 415.995,400.454 414.410 C 404.875 412.536,454.973 382.706,458.157 380.052 C 464.123 375.078,464.174 374.711,464.190 337.067 C 464.198 316.453,463.861 302.127,463.322 300.186 C 460.834 291.228,450.430 286.145,442.033 289.786 M249.565 385.604 C 245.356 387.516,241.856 391.515,240.678 395.760 C 240.159 397.625,239.794 409.785,239.791 425.265 C 239.787 448.084,239.619 451.532,238.532 451.114 C 237.842 450.850,230.659 446.754,222.571 442.013 C 214.483 437.273,206.312 432.985,204.413 432.485 C 195.315 430.091,185.211 438.255,185.211 448.000 C 185.211 451.673,187.673 457.198,190.394 459.630 C 191.512 460.630,205.672 469.174,221.862 478.617 C 250.506 495.326,251.423 495.787,256.018 495.787 C 260.611 495.787,261.538 495.322,290.156 478.647 C 306.336 469.220,320.488 460.676,321.606 459.661 C 324.337 457.179,326.789 451.662,326.789 448.000 C 326.789 438.255,316.685 430.091,307.587 432.485 C 305.688 432.985,297.517 437.273,289.429 442.013 C 281.341 446.754,274.158 450.850,273.468 451.114 C 272.381 451.532,272.213 448.084,272.209 425.265 C 272.206 409.785,271.841 397.625,271.322 395.760 C 269.537 389.332,262.617 384.037,256.000 384.037 C 254.357 384.037,251.461 384.742,249.565 385.604 " stroke="none" fill="black" fill-rule="evenodd"></path></svg>