<svg id="icons" xmlns="http://www.w3.org/2000/svg" viewBox="0 0 512 512"><path d="M124.207 33.794 C 84.149 41.082,50.922 69.926,37.960 108.663 C 31.675 127.448,32.000 119.422,32.000 256.000 C 32.000 370.151,32.104 379.003,33.530 386.560 C 41.409 428.316,69.403 460.908,108.663 474.038 C 126.956 480.156,119.283 479.813,246.187 480.189 C 319.638 480.407,365.116 480.214,373.346 479.647 C 395.817 478.102,413.579 472.242,430.507 460.789 C 450.900 446.993,466.179 426.829,474.036 403.346 C 480.325 384.550,480.000 392.585,480.000 256.000 C 480.000 141.849,479.896 132.997,478.470 125.440 C 470.936 85.517,445.178 54.112,407.893 39.393 C 405.312 38.374,399.360 36.486,394.667 35.197 L 386.133 32.854 258.560 32.707 C 150.539 32.583,129.948 32.750,124.207 33.794 M282.479 85.790 C 321.566 90.604,358.841 106.402,389.619 131.200 C 401.037 140.399,407.148 147.155,410.843 154.663 C 418.569 170.359,417.880 188.269,408.988 202.874 C 405.235 209.037,372.153 248.245,366.155 253.637 C 358.528 260.494,349.937 263.623,338.636 263.659 C 330.290 263.686,323.774 261.672,314.056 256.063 C 274.027 232.961,240.950 232.705,199.680 255.178 C 187.056 262.052,181.967 263.687,173.285 263.659 C 162.192 263.623,153.770 260.649,146.407 254.168 C 143.036 251.201,116.841 221.039,106.455 208.165 C 100.233 200.453,95.603 187.184,95.603 177.067 C 95.603 170.402,97.827 161.431,101.157 154.663 C 104.766 147.330,110.744 140.638,121.449 131.946 C 152.554 106.691,189.373 90.882,228.944 85.792 C 241.359 84.195,269.518 84.194,282.479 85.790 " stroke="none" fill="black" fill-rule="evenodd"></path></svg>