<svg id="icons" xmlns="http://www.w3.org/2000/svg" viewBox="0 0 512 512"><path d="M242.773 36.379 C 174.878 67.075,134.457 79.913,63.076 93.453 C 52.443 95.470,42.561 97.732,41.116 98.479 C 37.116 100.548,34.236 104.948,33.186 110.595 C 31.799 118.053,32.712 172.240,34.472 186.880 C 40.569 237.621,54.693 282.176,77.890 323.840 C 84.880 336.395,100.718 359.736,110.480 371.868 C 145.075 414.866,197.323 455.667,244.053 476.179 C 255.955 481.403,258.315 481.108,276.480 472.133 C 333.901 443.761,385.535 398.502,420.210 346.151 C 452.088 298.022,469.965 248.333,477.512 186.880 C 479.300 172.326,480.224 118.177,478.814 110.595 C 477.765 104.955,474.884 100.548,470.898 98.487 C 469.461 97.744,460.553 95.653,451.103 93.842 C 378.290 79.886,346.286 70.039,280.924 41.483 C 255.873 30.539,255.733 30.520,242.773 36.379 M255.664 446.060 C 254.550 447.175,226.214 431.121,210.447 420.442 C 148.308 378.357,103.581 320.028,81.024 251.661 C 77.249 240.220,71.490 217.242,69.578 205.993 C 65.805 183.795,63.710 157.466,64.156 137.853 L 64.427 125.946 86.613 121.451 C 144.966 109.629,181.613 97.984,238.933 73.052 L 255.573 65.814 255.789 255.767 C 255.907 360.242,255.851 445.873,255.664 446.060 " stroke="none" fill="black" fill-rule="evenodd"></path></svg>