<svg id="icons" xmlns="http://www.w3.org/2000/svg" viewBox="0 0 512 512"><path d="M81.493 1.613 C 79.616 2.479,77.201 4.144,76.127 5.311 C 75.044 6.488,70.171 17.856,65.195 30.810 C 60.257 43.667,55.760 54.643,55.202 55.202 C 54.643 55.760,43.667 60.257,30.810 65.195 C 17.856 70.171,6.488 75.044,5.311 76.127 C 2.556 78.662,0.042 84.162,0.019 87.707 C -0.018 93.125,3.789 99.498,8.533 101.964 C 9.707 102.574,20.459 106.817,32.427 111.393 C 44.395 115.969,54.622 120.137,55.154 120.656 C 55.686 121.175,60.093 131.959,64.949 144.620 C 74.194 168.725,76.217 172.357,81.666 174.634 C 87.793 177.194,97.076 174.898,100.591 169.953 C 101.480 168.703,106.244 157.191,111.177 144.371 C 116.110 131.551,120.343 120.866,120.582 120.627 C 120.822 120.387,131.517 116.137,144.349 111.182 C 157.181 106.227,168.703 101.454,169.953 100.574 C 174.892 97.100,177.195 87.796,174.634 81.666 C 172.357 76.217,168.725 74.194,144.620 64.949 C 131.959 60.093,121.182 55.686,120.671 55.154 C 120.160 54.622,116.166 44.779,111.795 33.280 C 107.424 21.781,103.175 11.029,102.354 9.387 C 98.326 1.337,89.344 -2.011,81.493 1.613 M392.962 33.771 C 389.601 35.523,387.489 37.484,386.138 40.105 C 385.533 41.279,379.751 56.064,373.289 72.960 C 366.827 89.856,361.122 104.103,360.610 104.621 C 360.099 105.138,345.856 110.854,328.960 117.322 C 312.064 123.791,297.204 129.607,295.937 130.247 C 291.755 132.362,288.990 137.005,288.586 142.592 C 288.374 145.512,288.665 148.702,289.277 150.179 C 291.684 155.991,294.953 157.689,328.533 170.564 C 346.133 177.312,360.649 182.931,360.790 183.051 C 360.932 183.171,366.616 197.810,373.422 215.581 C 385.022 245.868,386.028 248.116,389.467 251.449 C 393.803 255.650,398.953 256.900,404.778 255.164 C 411.807 253.069,413.010 250.883,426.615 215.482 L 439.070 183.070 471.482 170.615 C 506.883 157.010,509.069 155.807,511.164 148.778 C 512.900 142.953,511.650 137.803,507.449 133.468 C 504.120 130.032,501.826 129.004,471.438 117.324 L 438.983 104.850 426.638 72.696 C 414.006 39.793,412.312 36.433,406.956 33.663 C 403.808 32.035,396.178 32.094,392.962 33.771 M97.569 79.788 C 99.174 81.197,103.606 83.483,107.417 84.869 C 111.228 86.255,114.347 87.628,114.347 87.921 C 114.347 88.214,110.987 89.729,106.880 91.289 C 97.334 94.914,94.914 97.334,91.289 106.880 C 89.729 110.987,88.231 114.345,87.960 114.343 C 87.689 114.341,86.316 111.223,84.910 107.415 C 81.373 97.839,78.942 95.353,69.212 91.367 C 60.213 87.680,60.145 88.044,70.565 84.120 C 77.491 81.511,81.863 77.464,83.653 72.005 C 84.250 70.184,85.475 66.968,86.375 64.858 L 88.011 61.023 91.331 69.125 C 93.649 74.782,95.531 77.999,97.569 79.788 M406.134 108.373 C 412.463 125.034,412.496 125.104,415.771 128.565 C 417.731 130.638,422.068 132.700,434.469 137.456 C 443.348 140.861,450.314 143.927,449.947 144.268 C 449.580 144.609,442.379 147.521,433.946 150.738 C 413.781 158.429,414.241 157.971,406.684 177.920 C 403.484 186.368,400.592 193.580,400.257 193.947 C 399.922 194.314,396.845 187.305,393.419 178.372 C 386.431 160.151,384.763 157.851,376.218 154.642 C 373.693 153.694,366.467 150.904,360.162 148.444 L 348.697 143.970 352.482 142.515 C 378.190 132.639,382.048 130.950,384.500 128.499 C 386.841 126.159,392.582 112.978,398.561 96.214 C 399.189 94.454,399.946 93.302,400.244 93.654 C 400.542 94.006,403.193 100.629,406.134 108.373 M200.681 129.266 C 196.009 130.725,190.980 134.192,188.143 137.911 C 186.898 139.544,176.486 165.367,164.205 197.281 C 152.251 228.345,142.314 253.918,142.121 254.110 C 141.929 254.302,116.628 264.140,85.896 275.972 C 55.165 287.804,28.430 298.538,26.485 299.825 C 20.375 303.868,16.223 312.031,16.223 320.000 C 16.223 328.142,20.491 336.341,26.820 340.355 C 28.911 341.681,50.900 350.563,75.685 360.091 C 100.469 369.620,125.595 379.296,131.522 381.592 L 142.297 385.767 164.305 442.979 C 185.207 497.315,186.500 500.384,190.036 504.022 C 199.589 513.851,214.307 514.537,224.231 505.614 C 226.577 503.505,229.267 500.140,230.209 498.136 C 231.151 496.132,241.211 470.304,252.566 440.740 C 263.920 411.176,273.658 386.558,274.205 386.034 C 274.752 385.511,299.968 375.586,330.240 363.980 C 360.512 352.374,386.432 342.172,387.840 341.309 C 395.235 336.775,399.674 328.782,399.674 320.000 C 399.674 311.218,395.235 303.225,387.840 298.691 C 386.432 297.828,360.512 287.626,330.240 276.020 C 299.968 264.414,274.752 254.489,274.205 253.966 C 273.658 253.442,263.920 228.824,252.566 199.260 C 241.211 169.696,231.151 143.868,230.209 141.864 C 225.299 131.419,211.986 125.739,200.681 129.266 M226.520 220.587 C 236.252 245.931,244.898 268.237,245.732 270.156 C 247.681 274.638,252.418 279.356,257.522 281.898 C 259.736 283.001,282.379 291.896,307.840 301.666 C 333.301 311.436,354.133 319.686,354.133 320.000 C 354.133 320.314,333.301 328.564,307.840 338.334 C 282.379 348.104,259.736 356.999,257.522 358.102 C 252.418 360.644,247.681 365.362,245.732 369.844 C 244.898 371.763,236.252 394.069,226.520 419.413 C 216.788 444.757,208.572 465.781,208.263 466.134 C 207.954 466.486,199.272 444.818,188.970 417.982 C 178.530 390.786,169.200 367.748,167.890 365.931 C 166.598 364.139,164.033 361.581,162.190 360.245 C 160.233 358.828,138.582 350.040,110.147 339.122 C 83.367 328.840,61.456 320.235,61.456 320.000 C 61.456 319.765,83.367 311.160,110.147 300.878 C 138.582 289.960,160.233 281.172,162.190 279.755 C 164.033 278.419,166.598 275.861,167.890 274.069 C 169.200 272.252,178.530 249.214,188.970 222.018 C 199.272 195.182,207.954 173.514,208.263 173.866 C 208.572 174.219,216.788 195.243,226.520 220.587 " stroke="none" fill="black" fill-rule="evenodd"></path></svg>